<svg width="191" height="23" viewBox="0 0 191 23" fill="none" xmlns="http://www.w3.org/2000/svg">
<path d="M0.992 22L8.864 1.392H14.432L22.304 22H16.928L15.072 17.328H8.192L6.368 22H0.992ZM8.896 13.52H14.368L11.616 6.352L8.896 13.52ZM30.5453 22.32C29.3293 22.32 28.1773 22.2347 27.0893 22.064C26.0013 21.8933 25.1373 21.68 24.4973 21.424V17.488C25.2439 17.808 26.1079 18.0533 27.0893 18.224C28.0706 18.3947 28.9453 18.48 29.7133 18.48C30.6306 18.48 31.2919 18.4373 31.6973 18.352C32.1239 18.2667 32.3373 18.032 32.3373 17.648C32.3373 17.2213 31.9959 16.9013 31.3133 16.688C30.6306 16.4747 29.6919 16.1653 28.4973 15.76C27.1106 15.2693 26.0546 14.704 25.3293 14.064C24.6253 13.4027 24.2733 12.432 24.2733 11.152C24.2733 9.65867 24.8279 8.51733 25.9373 7.728C27.0679 6.91733 28.8599 6.512 31.3133 6.512C32.2733 6.512 33.2226 6.58667 34.1613 6.736C35.0999 6.88533 35.8679 7.056 36.4653 7.248V11.12C35.8679 10.8427 35.1853 10.64 34.4173 10.512C33.6493 10.384 32.9559 10.32 32.3373 10.32C31.5479 10.32 30.8759 10.3733 30.3213 10.48C29.7879 10.5653 29.5213 10.7893 29.5213 11.152C29.5213 11.5573 29.8199 11.8453 30.4173 12.016C31.0146 12.1653 31.8786 12.4213 33.0093 12.784C34.2039 13.1467 35.1319 13.5413 35.7933 13.968C36.4546 14.3733 36.9239 14.864 37.2013 15.44C37.4786 16.016 37.6173 16.7413 37.6173 17.616C37.6173 19.1307 37.0199 20.2933 35.8253 21.104C34.6306 21.9147 32.8706 22.32 30.5453 22.32ZM51.8688 22V5.36H45.8208V1.392H63.0688V5.36H57.0208V22H51.8688ZM64.8123 4.432V0.559999H70.4123V4.432H64.8123ZM65.2283 22V10.64H62.9883L63.4363 6.832H70.3802V22H65.2283ZM73.6633 22V6.832H78.4313L78.5913 8.176C79.2739 7.68533 80.0419 7.29067 80.8953 6.992C81.7486 6.672 82.6659 6.512 83.6473 6.512C84.6713 6.512 85.4713 6.672 86.0473 6.992C86.6233 7.29067 87.0713 7.71733 87.3913 8.272C88.0953 7.76 88.8846 7.344 89.7593 7.024C90.6553 6.68267 91.7006 6.512 92.8953 6.512C94.6659 6.512 95.9673 6.97067 96.7993 7.888C97.6313 8.80533 98.0473 10.2027 98.0473 12.08V22H92.9593V12.688C92.9593 11.856 92.7779 11.2587 92.4153 10.896C92.0739 10.512 91.5086 10.32 90.7193 10.32C90.2286 10.32 89.7486 10.4267 89.2793 10.64C88.8099 10.832 88.4153 11.1093 88.0953 11.472C88.1379 11.7067 88.1593 11.9307 88.1593 12.144C88.1806 12.3573 88.1912 12.6133 88.1912 12.912V22H83.3913V12.624C83.3913 11.856 83.2526 11.28 82.9753 10.896C82.7193 10.512 82.2179 10.32 81.4713 10.32C80.9379 10.32 80.4366 10.4587 79.9673 10.736C79.4979 11.0133 79.0713 11.3333 78.6873 11.696V22H73.6633ZM109.104 22.32C106.458 22.32 104.336 21.6693 102.736 20.368C101.136 19.0453 100.336 17.0613 100.336 14.416C100.336 12.0053 100.997 10.0853 102.32 8.656C103.642 7.22667 105.626 6.512 108.272 6.512C110.682 6.512 112.549 7.13067 113.872 8.368C115.194 9.60533 115.856 11.2693 115.856 13.36V16.08H105.104C105.338 17.0827 105.882 17.7867 106.736 18.192C107.61 18.576 108.794 18.768 110.288 18.768C111.12 18.768 111.962 18.6933 112.816 18.544C113.69 18.3947 114.416 18.2027 114.992 17.968V21.328C114.266 21.6693 113.402 21.9147 112.4 22.064C111.397 22.2347 110.298 22.32 109.104 22.32ZM105.104 13.104H111.376V12.432C111.376 11.6853 111.152 11.0987 110.704 10.672C110.256 10.224 109.498 10 108.432 10C107.194 10 106.33 10.256 105.84 10.768C105.349 11.2587 105.104 12.0373 105.104 13.104ZM125.351 22V1.392H140.327V5.36H130.503V9.68H139.143V13.712H130.503V22H125.351ZM146.992 22.32C145.328 22.32 144.133 21.9573 143.408 21.232C142.682 20.5067 142.32 19.344 142.32 17.744V0.431999H147.472V17.232C147.472 17.7227 147.568 18.064 147.76 18.256C147.973 18.4267 148.282 18.512 148.688 18.512C149.264 18.512 149.776 18.4373 150.224 18.288V21.776C149.733 21.968 149.242 22.1067 148.752 22.192C148.282 22.2773 147.696 22.32 146.992 22.32ZM152.062 4.432V0.559999H157.662V4.432H152.062ZM152.478 22V10.64H150.238L150.686 6.832H157.63V22H152.478ZM169.041 22.32C166.396 22.32 164.273 21.6693 162.673 20.368C161.073 19.0453 160.273 17.0613 160.273 14.416C160.273 12.0053 160.935 10.0853 162.257 8.656C163.58 7.22667 165.564 6.512 168.209 6.512C170.62 6.512 172.487 7.13067 173.809 8.368C175.132 9.60533 175.793 11.2693 175.793 13.36V16.08H165.041C165.276 17.0827 165.82 17.7867 166.673 18.192C167.548 18.576 168.732 18.768 170.225 18.768C171.057 18.768 171.9 18.6933 172.753 18.544C173.628 18.3947 174.353 18.2027 174.929 17.968V21.328C174.204 21.6693 173.34 21.9147 172.337 22.064C171.335 22.2347 170.236 22.32 169.041 22.32ZM165.041 13.104H171.313V12.432C171.313 11.6853 171.089 11.0987 170.641 10.672C170.193 10.224 169.436 10 168.369 10C167.132 10 166.268 10.256 165.777 10.768C165.287 11.2587 165.041 12.0373 165.041 13.104ZM183.889 22.32C182.673 22.32 181.521 22.2347 180.433 22.064C179.345 21.8933 178.481 21.68 177.841 21.424V17.488C178.588 17.808 179.452 18.0533 180.433 18.224C181.414 18.3947 182.289 18.48 183.057 18.48C183.974 18.48 184.636 18.4373 185.041 18.352C185.468 18.2667 185.681 18.032 185.681 17.648C185.681 17.2213 185.34 16.9013 184.657 16.688C183.974 16.4747 183.036 16.1653 181.841 15.76C180.454 15.2693 179.398 14.704 178.673 14.064C177.969 13.4027 177.617 12.432 177.617 11.152C177.617 9.65867 178.172 8.51733 179.281 7.728C180.412 6.91733 182.204 6.512 184.657 6.512C185.617 6.512 186.566 6.58667 187.505 6.736C188.444 6.88533 189.212 7.056 189.809 7.248V11.12C189.212 10.8427 188.529 10.64 187.761 10.512C186.993 10.384 186.3 10.32 185.681 10.32C184.892 10.32 184.22 10.3733 183.665 10.48C183.132 10.5653 182.865 10.7893 182.865 11.152C182.865 11.5573 183.164 11.8453 183.761 12.016C184.358 12.1653 185.222 12.4213 186.353 12.784C187.548 13.1467 188.476 13.5413 189.137 13.968C189.798 14.3733 190.268 14.864 190.545 15.44C190.822 16.016 190.961 16.7413 190.961 17.616C190.961 19.1307 190.364 20.2933 189.169 21.104C187.974 21.9147 186.214 22.32 183.889 22.32Z" fill="white"/>
</svg>
